<?xml version="1.0" encoding="UTF-8" standalone="no"?>
<!-- Created with Inkscape (http://www.inkscape.org/) -->

<svg
   width="210mm"
   height="297mm"
   viewBox="0 0 210 297"
   version="1.1"
   id="svg1"
   xml:space="preserve"
   xmlns="http://www.w3.org/2000/svg"
  ><defs
     id="defs1" /><g
     id="layer1"><path
       style="display:inline;fill:none;stroke:#ff0000;stroke-width:0.264999"
       d="m 102.82368,-4.0787989 4.17365,0.011857 c 0,0 6.6399,11.9399721 12.14154,14.0267996 5.50163,2.0868273 13.88328,5.1013673 16.88433,7.4936073 4.86233,3.875935 2.75937,4.150963 -5.5857,3.292757 -8.34507,-0.858206 -17.37503,-2.561808 -24.92091,-3.127218 -4.82607,-0.361616 -17.639649,2.651553 -25.107644,3.07503 -5.191276,0.294374 -9.357532,0.477692 -8.808424,-0.03171 3.876681,-3.596356 4.79931,-5.097652 18.20622,-10.379083 5.420801,-2.1354347 8.112085,-7.2760461 13.016938,-14.3620399 z"
       id="backUpperTraps" /><path
       style="display:inline;fill:none;stroke:#ff0000;stroke-width:0.264999"
       d="m 105.51659,17.619004 c 0,0 -3.11096,-0.53457 -9.367425,0.878116 -5.63335,1.27199 -4.529371,0.450279 -11.654937,1.801073 -4.728056,0.896298 -13.57732,1.174771 -12.893706,0.364131 1.425761,-1.69069 -2.423234,2.579428 -1.931029,3.427914 0.760915,1.3117 14.573399,2.243774 20.016654,8.445296 0.875501,0.997462 6.797687,6.216481 11.443313,11.568114 1.85111,2.132431 4.48338,3.14909 7.60454,-0.893139 0.51076,-0.661494 3.70778,-4.248118 4.58684,-4.985343 2.25745,-1.893204 3.15933,-2.220623 5.72317,-4.646218 3.56691,-3.374577 17.06183,-8.484523 21.05083,-9.445979 l -2.60649,-2.85314 c -0.10341,-0.119576 -4.9927,-0.317135 -7.05085,-0.533607 -0.30228,-0.004 -6.06051,-0.676432 -7.23249,-0.891202 -1.17198,-0.214773 -4.88759,-0.489627 -7.32486,-1.035982 -2.43727,-0.546354 -6.4228,-0.817013 -8.08107,-0.985759 -1.65827,-0.168745 -2.28249,-0.214275 -2.28249,-0.214275 z"
       id="MiddleTraps" /><path
       style="display:inline;fill:none;stroke:#ff0000;stroke-width:0.264999"
       d="m 84.255397,28.646447 c 3.60073,2.098716 3.815415,2.125383 5.43075,3.889087 1.589566,1.735569 4.716246,4.571499 5.651662,5.462785 0.935416,0.891284 0.565699,0.445923 1.91055,1.917395 1.344853,1.47147 1.080239,0.850318 2.130271,2.237164 1.05176,1.389134 0.434029,0.820489 1.75083,1.95077 1.58399,1.359625 1.66426,1.270427 2.93743,1.664364 1.54256,0.477292 3.03463,-0.511325 3.43695,-1.258534 l 2.46032,-2.597938 2.33562,-2.683851 3.01625,-2.537629 c 2.14264,-1.826975 5.12236,-4.302283 5.43065,-4.405951 0.71176,-0.239342 3.8459,-2.200632 7.4915,-3.830618 5.52374,-2.469724 12.06126,-4.817982 11.85666,-4.320522 -0.0146,0.03544 3.9202,1.653617 4.51796,4.325714 -0.003,1.05505 -4.55765,3.530489 -9.10423,6.563496 -3.0386,2.027039 -6.10553,4.242768 -8.11746,5.866077 -0.21197,0.171028 -6.65923,5.773364 -6.78874,7.210935 -0.16769,1.86128 -0.39048,5.207212 -1.17855,7.521236 -0.78811,2.314025 -2.04573,4.410059 -3.32012,6.439024 -1.27439,2.028963 -6.40294,10.078374 -8.58463,13.350899 -2.18168,3.272525 -4.29222,1.968259 -5.83363,-0.54542 -1.5414,-2.513679 -7.414217,-9.549401 -10.196993,-15.295496 -2.74513,-5.668361 -2.887928,-9.453895 -3.173506,-10.357714 -0.190963,-0.604374 -1.41579,-2.702464 -2.444281,-4.195052 -0.35304,-0.512347 -1.070402,-0.78737 -0.997684,-1.096426 0.107355,-0.456265 -4.819427,-4.284102 -9.39063,-7.471659 -1.746656,-1.217965 -3.590351,-1.995234 -4.862112,-2.966512 -1.393134,-1.063974 -7.179556,-3.879152 -7.227925,-4.141669 -0.09822,-0.533108 -0.612081,-0.450273 0.586534,-1.405373 0.910855,-0.725803 5.69065,-3.844791 5.69065,-3.844791 z"
       id="LowerTraps" /><path
       style="fill:none;stroke:#ff0000;stroke-width:0.264999"
       d="m 104.30746,77.493171 c -4.00424,-3.206324 -7.269474,-9.686472 -10.898649,-14.55435 0,0 -1.116129,-2.103456 -3.866129,-1.835164 -2.749999,0.268293 -1.810975,0.670732 -5.768292,5.231707 -3.957317,4.560978 -4.628049,4.426831 -7.780488,3.554878 -3.152439,-0.87195 -7.512196,-4.22561 -9.189024,-4.695121 -1.676829,-0.469511 -3.461482,1.408389 -2.347561,4.292682 0.78657,2.036678 1.181292,3.015361 3.353658,5.969512 2.142604,2.91368 1.66985,3.015142 4.393293,5.533538 2.840914,2.627022 3.454267,3.253048 4.460366,4.326219 1.006096,1.073171 4.22561,3.219511 6.237803,6.036585 2.012196,2.817075 4.487849,5.097561 5.396365,6.97561 0.908513,1.878053 0.908513,2.951223 2.249977,4.829263 1.341464,1.87805 7.780488,-16.231701 9.524391,-20.121946 1.7439,-3.890243 4.23429,-5.543413 4.23429,-5.543413 z"
       id="leftLat" /><path
       style="fill:none;stroke:#ff0000;stroke-width:0.264999"
       d="m 105.70863,77.493171 c 0.61581,-0.242424 0.44681,-0.521404 1.06585,-1.135003 1.41762,-1.405141 2.49507,-3.68849 3.42635,-5.055783 2.14154,-3.144213 3.09966,-5.367446 5.33328,-8.363564 0,0 1.11613,-2.103456 3.86613,-1.835164 2.75,0.268293 1.81098,0.670732 5.76829,5.231707 3.95732,4.560978 4.62805,4.426831 7.78049,3.554878 3.15244,-0.87195 7.5122,-4.22561 9.18903,-4.695121 1.67683,-0.469511 3.59652,1.418091 2.88415,4.426828 -0.7635,3.224683 -1.02279,3.487494 -3.28659,6.103659 -2.36655,2.734908 -1.90461,2.981605 -4.62805,5.500001 -2.84092,2.627022 -3.25305,3.655487 -4.25915,4.728658 -1.0061,1.073171 -4.39329,3.320121 -6.40548,6.137195 -2.0122,2.817075 -4.28663,5.768293 -5.19515,7.646342 -0.90851,1.878056 -1.24388,1.809086 -2.58535,3.687126 -1.34146,1.87805 -8.04877,-16.498101 -9.79268,-20.388346 -1.7439,-3.890243 -3.16112,-5.543413 -3.16112,-5.543413 z"
       id="rightLat" /><path
       style="fill:none;stroke:#ff0000;stroke-width:0.264999"
       d="m 74.205977,35.483876 c -10.36448,-5.699159 -12.312575,-7.501419 -13.972553,-7.074569 -1.659977,0.426852 -3.462237,1.185698 -4.600506,2.0394 -1.138269,0.853702 -3.13024,2.987958 -3.889086,4.26851 -0.758847,1.280554 -2.229112,4.221083 -2.798247,5.88106 -0.569135,1.659975 -1.849686,6.592478 -1.849686,7.825603 0,1.233125 -0.331996,3.557092 -0.04743,4.363365 0.129006,0.365517 5.103988,-4.262443 11.128429,-8.071642 7.264559,-4.593314 15.811455,-8.60521 16.029079,-9.231727 z"
       id="leftRearDeltoid" /><path
       style="fill:none;stroke:#ff0000;stroke-width:0.264999"
       d="m 134.72524,35.548481 c 0,0 13.05037,-8.224242 14.71035,-7.797392 1.65998,0.426852 3.12688,1.908521 4.26514,2.762223 1.13827,0.853702 2.7278,2.987958 3.48665,4.26851 0.75885,1.280554 2.22911,4.221083 2.79825,5.88106 0.56913,1.659975 1.84968,6.592478 1.84968,7.825603 0,1.233125 0.332,3.557092 0.0474,4.363365 0.21133,0.398082 -5.59463,-4.994965 -12.46906,-9.610429 -5.99109,-4.022387 -13.69061,-6.836168 -15.35952,-7.236222 z"
       id="rightRearDeltoid" /><path
       style="fill:none;stroke:#ff0000;stroke-width:0.264999"
       d="m 104.30746,77.493171 c -1.92836,1.837333 -0.86931,0.634326 -1.46021,1.309685 -0.59091,0.67536 -0.95138,0.736931 -1.86273,2.485329 -0.91135,1.748399 -1.548921,3.248229 -2.075958,4.585486 -0.527034,1.337257 -1.302462,3.331604 -1.98819,5.047271 -0.685729,1.715667 -0.760035,2.01866 -1.82444,4.493093 -1.064403,2.474434 -1.321116,2.800799 -1.92339,4.34001 -0.622385,1.590605 -2.186903,3.747385 -2.623763,3.404485 0,0 1.79333,3.22224 3.026455,4.64507 1.233125,1.42284 4.671647,5.07479 5.620204,5.97592 0.948552,0.90113 10.362992,1.32798 11.833262,0.14228 1.47026,-1.1857 7.75257,-9.85623 7.18568,-10.43326 -0.38442,-0.3913 -1.71331,-2.45508 -3.25912,-5.713784 -0.73371,-1.546741 -1.6225,-3.197266 -2.28506,-5.373238 -0.61567,-2.021998 -2.47047,-6.325343 -3.36676,-8.351659 -2.09356,-4.733045 -3.43024,-6.609884 -3.59481,-6.556688 z"
       id="Erectors" /><path
       style="fill:none;stroke:#ff0000;stroke-width:0.264999"
       d="m 83.874997,57.548779 c -5.174092,-3.565319 -7.10814,-4.953017 -8.688463,-6.274919 -3.125921,-2.614759 -2.621259,-3.018515 -7.342024,-5.831787 -1.383427,-0.824433 -4.326218,-0.08981 -5.231706,0.575519 -0.905487,0.665335 -1.978658,1.268992 -2.75,2.57692 -0.771343,1.307925 -0.771343,1.690624 -0.368903,3.018293 0.402439,1.327668 1.420698,4.750398 2.884146,7.042681 1.46345,2.292287 4.46356,6.424007 5.510321,7.010533 1.04676,0.586528 2.304782,1.440389 4.128592,2.407856 1.823813,0.96747 4.085495,2.314501 5.71422,2.235666 1.628727,-0.07883 2.360726,0.06505 4.201967,-1.954565 1.841243,-2.019612 4.028622,-5.327904 5.106873,-6.160492 1.078252,-0.832591 -3.165023,-4.645705 -3.165023,-4.645705 z"
       id="leftTeresMajor" /><path
       style="fill:none;stroke:#ff0000;stroke-width:0.264999"
       d="m 124.98244,57.59396 c 5.17409,-3.565319 8.24589,-5.190774 9.82673,-6.512058 3.13351,-2.619031 6.79082,-5.364321 7.34202,-5.831787 1.22823,-1.041643 3.18795,0.147329 4.09344,0.812658 0.90549,0.665335 1.97866,1.268992 2.75,2.57692 0.77134,1.307925 0.77134,1.690624 0.3689,3.018293 -0.40244,1.327668 -1.4207,4.750398 -2.88414,7.042681 -1.46345,2.292287 -4.46356,6.424007 -5.51033,7.010533 -1.04676,0.586528 -2.30478,1.440389 -4.12859,2.407856 -1.82381,0.96747 -4.08549,2.314501 -5.71422,2.235666 -1.62872,-0.07883 -2.36072,0.06505 -4.20196,-1.954565 -1.84125,-2.019612 -4.02863,-5.327904 -5.10688,-6.160492 -1.07825,-0.832591 3.16503,-4.645705 3.16503,-4.645705 z"
       id="rightTeresMajor" /><path
       style="fill:none;stroke:#ff0000;stroke-width:0.264999"
       d="m 74.205977,35.483876 c -8.288393,4.713079 -9.20605,6.892946 -8.708056,7.556937 0.497993,0.66399 1.680377,1.880626 3.498516,3.104308 1.818143,1.22368 5.273908,4.427681 6.547057,5.423443 1.273146,0.995759 5.169037,3.792918 6.05945,4.409754 0.890413,0.616837 2.866133,0.555731 4.028117,0.05774 1.161984,-0.497994 3.830484,-1.020233 3.504073,-2.253866 C 88.808723,52.548559 88.592746,49.051723 87.66223,47.388433 86.731715,45.72514 83.425664,42.23454 81.860545,41.167412 80.295424,40.100284 74.205977,35.483876 74.205977,35.483876 Z"
       id="leftInfraspinatus" /><path
       style="fill:none;stroke:#ff0000;stroke-width:0.264999"
       d="m 134.05413,36.005199 c 2.06025,1.171534 4.5271,1.344764 5.8696,2.177526 4.05838,2.517437 4.78135,4.387678 4.40714,4.88662 -0.498,0.663986 -1.85858,2.129581 -3.67671,3.353263 -1.81815,1.22368 -5.56999,4.226154 -6.84314,5.221916 -1.27315,0.995759 -5.16904,3.792918 -6.05945,4.409754 -0.89041,0.616837 -3.00297,0.601508 -4.26526,0.532019 -0.63452,-0.03493 -3.086,-0.56181 -3.3855,-1.827015 -0.29728,-1.255797 0.19103,-5.040321 0.50156,-6.660091 0.35884,-1.871802 5.22362,-6.143807 6.78874,-7.210935 0.13114,-0.08941 1.62002,-1.339315 1.79009,-1.467727 1.85971,-1.404149 4.87293,-3.41533 4.87293,-3.41533 z"
       id="rightInfraspinatus" /><path
       style="fill:none;stroke:#ff0000;stroke-width:0.264999"
       d="m 87.725039,105.65784 c 0,0 -1.468942,-1.15784 -2.877478,-0.48711 -1.408538,0.67073 -5.097563,4.69512 -5.432927,5.76829 -0.335368,1.07317 -1.609757,6.17073 -1.609757,8.11586 0,1.94512 -0.201218,9.85975 -0.06707,11.33536 0.134146,1.47561 1.408536,8.45122 2.347561,10.2622 0.939024,1.81097 0.670732,4.22561 6.908535,4.29268 6.237806,0.0671 12.743902,-2.21341 13.817067,-3.15244 1.07318,-0.93902 4.18903,-4.82927 4.18903,-6.77439 0,-1.94512 0.59135,-4.89634 0,-7.17683 -0.59135,-2.28049 -3.18293,-8.65244 -4.65854,-10.59756 -1.475605,-1.94512 -5.518364,-6.43902 -7.713411,-8.11585 -2.195047,-1.67683 -4.55926,-3.24384 -4.55926,-3.24384 z"
       id="leftGluteusMaximus" /><path
       style="fill:none;stroke:#ff0000;stroke-width:0.264999"
       d="m 123.07028,105.4207 c 0,0 1.228,-1.14529 2.72334,-0.70053 1.91472,0.56949 6.04968,4.87629 6.45902,5.74934 0.51112,1.09013 2.19815,5.37549 2.21819,7.74795 0.0151,1.78203 0.33554,9.03476 -0.32244,12.36249 -0.2874,1.45356 -1.35914,8.93224 -2.29816,10.74322 -0.93903,1.81097 -1.81097,3.55488 -8.04878,3.62195 -6.23781,0.0671 -12.7439,-2.21341 -13.81707,-3.15244 -1.07318,-0.93902 -4.18903,-4.87957 -4.18903,-6.82469 0,-1.94512 -0.59135,-4.84604 0,-7.12653 0.59135,-2.28049 2.90625,-9.00457 4.38186,-10.94969 1.47561,-1.94512 5.65277,-6.38331 7.84781,-8.06014 2.19505,-1.67683 4.58297,-3.10156 4.58297,-3.10156 z"
       id="rightGluteusMaximus" /><path
       style="fill:none;stroke:#ff0000;stroke-width:0.264999"
       d="m 78.307926,103.42493 c -2.414635,1.87995 -4.818472,4.22176 -5.086765,6.63639 -0.26829,2.41464 -0.704266,8.69157 0,9.17686 0.704268,0.48528 6.193473,-8.29916 6.193473,-8.29916 0,0 0.600797,-1.13195 1.53294,-2.16403 0.932145,-1.03207 1.983496,-2.28701 2.94174,-2.94563 0.958247,-0.65863 2.069743,-0.8617 2.069743,-0.8617 0,0 1.492861,0.31252 -0.105399,-0.48296 -1.598263,-0.79547 -2.179878,-0.86045 -4.460367,-1.05977 -2.280486,-0.19932 -3.085365,0 -3.085365,0 z"
       id="leftGluteusMedius" /><path
       style="fill:none;stroke:#ff0000;stroke-width:0.264999"
       d="m 133.24547,102.89576 c 2.41465,1.87995 4.29271,4.1269 4.561,6.54153 0.26829,2.41464 0.16196,9.46715 -0.54234,9.95244 -0.70427,0.48528 -5.01149,-8.92022 -5.01149,-8.92022 0,0 -0.8121,-1.04684 -1.74424,-2.07892 -0.93215,-1.03207 -2.09255,-2.06696 -3.0508,-2.72558 -0.95825,-0.65863 -1.8633,-1.22652 -1.8633,-1.22652 0,0 -1.49287,0.31252 0.10539,-0.48296 1.59828,-0.79547 2.17989,-0.86045 4.4604,-1.05977 2.2805,-0.19932 3.08538,0 3.08538,0 z"
       id="rightGluteusMedius" /><path
       style="fill:none;stroke:#ff0000;stroke-width:0.264999"
       d="m 71.14184,141.71455 c 0,0 -3.889086,6.6399 -5.21707,12.61581 -1.32798,5.97592 -3.319951,12.61582 -3.319951,21.62712 0,9.01131 0.09486,6.26049 1.233125,13.56438 1.138269,7.3039 1.32798,7.11418 3.889089,12.90039 2.561106,5.7862 3.509663,9.77014 5.311923,9.29586 1.802259,-0.47427 -4.458221,-17.73803 -5.027356,-21.72197 -0.569135,-3.98394 -1.802262,-7.20904 -0.66399,-14.22837 1.138269,-7.01933 3.889086,-12.14154 4.363365,-18.0226 0.474279,-5.88106 -0.569135,-16.03062 -0.569135,-16.03062 z"
       id="leftVastusLateralis" /><path
       style="fill:none;stroke:#ff0000;stroke-width:0.264999"
       d="m 142.82034,141.71455 c 0,0 3.21835,5.43258 4.54634,11.40849 1.32798,5.97592 4.19061,13.73146 3.78946,22.73383 -0.38717,8.68867 0.12747,6.68677 -1.23313,14.03389 -1.28945,6.96292 -1.6056,5.9332 -3.82202,12.16259 -2.12112,5.96156 -3.37551,10.13904 -5.17777,9.66476 -1.80226,-0.47427 4.45822,-17.73803 5.02736,-21.72197 0.56913,-3.98394 1.80226,-7.20904 0.66399,-14.22837 -1.13827,-7.01933 -3.88909,-12.14154 -4.36337,-18.0226 -0.47428,-5.88106 0.56914,-16.03062 0.56914,-16.03062 z"
       id="rightVastusLateralis" /><path
       style="fill:none;stroke:#ff0000;stroke-width:0.264999"
       d="m 73.038956,211.71811 c 0,0 2.41836,-3.92543 3.089092,-6.80958 0.670732,-2.88414 -0.469513,-9.9939 0.603658,-10.59756 1.073171,-0.60366 1.140245,-0.40244 1.676831,0.13415 0.536583,0.53659 1.475608,1.67683 2.14634,4.22561 0.670732,2.54878 2.012196,5.83536 3.353659,8.18293 1.341462,2.34756 3.957318,9.65853 5.567072,9.79268 1.609757,0.13415 3.103639,-2.8414 3.672774,-5.87678 0.569134,-3.03539 1.802259,-6.73476 2.750817,-9.10616 0.94856,-2.37139 2.181685,-4.36336 2.655964,-7.68332 0.474279,-3.31995 2.181687,-10.90841 2.371397,-13.56437 0.18971,-2.65597 -1.517695,-11.00328 -2.181685,-14.32323 -0.663991,-3.31995 -0.601685,-10.33649 -1.170819,-13.08731 -0.569135,-2.75082 -0.916008,-3.60078 -1.959424,-4.50517 -1.043414,-0.9044 -10.339279,0.23387 -12.710673,3.55383 -2.371397,3.31995 -4.268513,9.48557 -6.35534,10.05471 -2.086827,0.56913 -4.837644,-4.36337 -4.837644,-4.36337 0,0 -0.413999,3.60321 -1.57507,7.40904 -1.161071,3.80583 -3.321121,10.63358 -3.222053,14.62299 0.09906,3.98941 -0.0731,6.6552 2.792214,16.63519 2.865313,9.97999 3.546062,13.17487 3.546062,13.17487 0,0 0.252611,1.29408 -0.213172,2.13085 z"
       id="leftHamstrings" /><path
       style="fill:none;stroke:#ff0000;stroke-width:0.264999"
       d="m 140.92322,211.71811 c 0,0 -2.41836,-3.92543 -3.08909,-6.80958 -0.67074,-2.88414 0.46951,-9.9939 -0.60366,-10.59756 -1.07317,-0.60366 -1.14025,-0.40244 -1.67683,0.13415 -0.53659,0.53659 -1.47561,1.67683 -2.14634,4.22561 -0.67073,2.54878 -2.0122,5.83536 -3.35366,8.18293 -1.34146,2.34756 -3.95732,9.65853 -5.56707,9.79268 -1.60976,0.13415 -3.10364,-2.8414 -3.67278,-5.87678 -0.56913,-3.03539 -1.80226,-6.73476 -2.75081,-9.10616 -0.94856,-2.37139 -2.18169,-4.36336 -2.65597,-7.68332 -0.47428,-3.31995 -2.18169,-10.90841 -2.3714,-13.56437 -0.18971,-2.65597 0.57868,-11.27157 1.24267,-14.59152 0.66399,-3.31995 0.0651,-9.7999 0.63422,-12.55072 0.56914,-2.75082 2.39163,-3.86908 3.43504,-4.77347 1.04342,-0.9044 10.33928,0.23387 12.71068,3.55383 2.37139,3.31995 4.26851,9.48557 6.35534,10.05471 2.08682,0.56913 4.83764,-4.36337 4.83764,-4.36337 0,0 0.414,3.60321 1.57507,7.40904 1.16107,3.80583 3.32112,10.63358 3.22205,14.62299 -0.0991,3.98941 0.0731,6.6552 -2.79221,16.63519 -2.86531,9.97999 -3.54606,13.17487 -3.54606,13.17487 0,0 -0.25261,1.29408 0.21317,2.13085 z"
       id="rightHamstrings" /><path
       style="fill:none;stroke:#ff0000;stroke-width:0.264999"
       d="m 77.804877,236.36585 c -2.414635,-0.80488 -3.890243,0.53659 -5.634146,2.54878 -1.743903,2.0122 -3.784021,5.90244 -3.784021,8.04878 0,2.14635 0.966947,8.18293 2.174264,10.46342 1.207318,2.28048 5.750507,10.2562 7.505338,9.49735 1.754833,-0.75885 5.643919,-9.58043 6.118198,-8.91644 0.474279,0.66399 0.66399,3.69938 0.806275,4.41079 0.142283,0.71142 1.767773,6.64087 2.250561,7.48579 0.541362,0.94742 3.605099,4.58293 4.22166,4.34579 0.616567,-0.23715 4.531051,-5.42882 5.100186,-7.61049 0.569135,-2.18169 1.422837,-7.68332 1.138269,-9.86501 -0.284567,-2.18168 -1.61255,-9.12987 -2.466251,-11.07441 -0.853702,-1.94454 -1.680849,-3.01245 -2.489964,-4.88507 -1.013995,-2.34679 -1.377095,-2.97477 -2.515365,-2.87991 -1.138272,0.0949 -2.725419,4.32646 -2.962557,4.99045 -0.237141,0.66399 -1.327981,7.11418 -2.229112,7.06675 -0.901128,-0.0474 -1.897115,-4.79021 -2.371394,-6.11819 -0.474279,-1.32798 -3.178831,-6.57459 -4.861941,-7.50838 z"
       id="leftGastrocnemius" /><path
       style="fill:none;stroke:#ff0000;stroke-width:0.264999"
       d="m 136.59914,236.36585 c 2.41464,-0.80488 3.89025,0.53659 5.63415,2.54878 1.7439,2.0122 3.85109,7.04268 3.85109,9.18902 0,2.14635 -0.095,7.10976 -1.30231,9.39025 -1.20732,2.28048 -6.68953,10.18913 -8.44436,9.43028 -1.75484,-0.75885 -5.64392,-9.58043 -6.1182,-8.91644 -0.47428,0.66399 -0.66399,3.69938 -0.80628,4.41079 -0.14228,0.71142 -1.76777,6.64087 -2.25056,7.48579 -0.54136,0.94742 -2.80022,4.72911 -3.41678,4.49197 -0.61656,-0.23715 -5.06764,-5.91037 -5.63677,-8.09204 -0.56914,-2.18169 -2.0265,-7.61624 -1.74193,-9.79793 0.28457,-2.18168 0.29946,-6.67541 2.53333,-11.40978 0.90685,-1.92194 1.43189,-2.96953 2.52349,-4.60001 1.42225,-2.12434 1.61186,-2.65617 2.75013,-2.56131 1.13827,0.0949 2.72542,4.32646 2.96256,4.99045 0.23714,0.66399 1.32798,7.11418 2.22911,7.06675 0.90113,-0.0474 1.89711,-4.79021 2.37139,-6.11819 0.47428,-1.32798 3.17883,-6.57459 4.86194,-7.50838 z"
       id="rightGastrocnemius" /><path
       style="fill:none;stroke:#ff0000;stroke-width:0.264999"
       d="m 73.021946,269.44582 c 1.75987,3.89025 6.258541,11.18833 6.526834,13.33465 C 79.817073,284.92682 80.085366,297 80.085366,297 c 0,0 -3.756099,-9.65853 -5.902439,-14.21953 -2.146342,-4.56096 -2.682928,-6.30486 -3.621953,-11 -0.939025,-4.69511 -1.161977,-4.11237 -1.160093,-4.44983 0.0042,-0.74624 1.680845,-1.59916 3.621065,2.11518 z"
       id="leftSoleus" /><path
       style="fill:none;stroke:#ff0000;stroke-width:0.264999"
       d="m 142.46331,269.0664 c -2.72395,3.24753 -5.97363,11.06208 -6.19483,13.23979 C 136.04989,284.45818 134.54619,297 134.54619,297 c 0,0 4.6098,-10.03795 6.75614,-14.59895 2.14634,-4.56096 2.68293,-6.30486 3.62195,-11 0.93903,-4.69511 1.16198,-4.11237 1.16009,-4.44983 -0.004,-0.74624 -1.68084,-1.59916 -3.62106,2.11518 z"
       id="rightSoleus" /><path
       style="fill:none;stroke:#ff0000;stroke-width:0.264999"
       d="m 55.680347,49.419864 c -3.348778,-0.601049 -6.711047,3.41481 -7.730746,4.410795 -1.019702,0.995986 -2.727106,3.96023 -2.869388,6.402765 -0.142285,2.442538 0.403138,6.948186 -0.237141,9.461865 -0.640275,2.51368 -2.385755,9.316905 -2.184537,11.865687 0.201221,2.548779 -0.26829,3.454268 0.519819,3.990853 0.788109,0.536586 0.167682,-1.660062 4.963414,-3.487806 4.795731,-1.827744 11.067989,-4.460364 11.754572,-6.539635 0.686586,-2.079268 2.146342,-7.445121 2.213417,-10.396339 0.06707,-2.95122 -0.612791,-7.991244 -0.984711,-8.892659 -0.371919,-0.901414 -1.759161,-5.273341 -1.894818,-5.81915 -0.13566,-0.545809 -3.549881,-0.996376 -3.549881,-0.996376 z"
       id="leftLongHead" /><path
       style="fill:none;stroke:#ff0000;stroke-width:0.264999"
       d="m 153.87867,48.96712 c 3.34877,-0.601049 6.71104,3.41481 7.73074,4.410795 1.0197,0.995986 2.72711,3.96023 2.86939,6.402765 0.14229,2.442538 -0.40314,6.948186 0.23714,9.461865 0.64028,2.51368 2.38576,9.316905 2.18454,11.865687 -0.20122,2.548779 0.26829,3.454268 -0.51982,3.990853 -0.78811,0.536586 -0.16768,-1.660062 -4.96341,-3.487806 -4.79574,-1.827744 -11.06799,-4.460364 -11.75458,-6.539635 -0.68658,-2.079268 -2.14634,-7.445121 -2.21341,-10.396339 -0.0671,-2.95122 0.61279,-7.991244 0.98471,-8.892659 0.37192,-0.901414 1.75916,-5.273341 1.89482,-5.81915 0.13566,-0.545809 3.54988,-0.996376 3.54988,-0.996376 z"
       id="rightLongHead" /><path
       style="fill:none;stroke:#ff0000;stroke-width:0.264999"
       d="m 43.178354,85.551829 c -1.324695,5.399389 0.08384,6.539632 2.096037,7.277439 2.012193,0.737804 3.554878,0.268292 6.103657,-2.012196 2.548781,-2.280489 7.540913,-6.237804 9.204878,-7.780488 1.663964,-1.542683 2.117603,-1.629511 3.395916,-5.543413 1.278311,-3.913904 -17.530672,4.671462 -20.800488,8.058658 z"
       id="leftMedialHead" /><path
       style="fill:none;stroke:#ff0000;stroke-width:0.264999"
       d="m 166.38066,85.099085 c 1.3247,5.399389 0.77551,6.992376 -1.23674,7.730183 -2.0122,0.737804 -4.50416,1.010794 -6.10369,-2.012196 -1.74096,-3.290289 -7.4452,-6.357506 -9.20493,-7.780488 -1.76439,-1.426746 -2.11762,-1.629511 -3.39594,-5.543413 -0.75077,-2.298678 4.7835,-0.282447 10.26427,2.209998 2.04883,0.931733 4.12962,1.606747 5.81478,2.615331 1.48245,0.887255 3.23072,2.126385 3.86225,2.780585 z"
       id="rightMedialHead" /><path
       style="fill:none;stroke:#ff0000;stroke-width:0.264999"
       d="m 45.151354,55.253495 c -4.979929,3.651949 -6.070769,6.213054 -6.687333,8.584449 -0.616561,2.371394 -0.948557,2.0394 -0.853702,5.359352 0.09486,3.319952 0.331997,5.311926 1.043414,6.497621 0.711419,1.185699 0.995987,1.233125 2.655961,-1.138269 1.659978,-2.371394 3.533378,-4.861359 3.533378,-4.861359 0,0 0.304269,-1.269277 0.309129,-2.779403 0.0049,-1.510127 -0.106614,-3.26608 -0.0893,-4.974269 0.0173,-1.708193 0.189465,-3.883621 0.467878,-4.248039 0.278413,-0.364419 -0.379423,-2.440083 -0.379423,-2.440083 z"
       id="leftLateralHead" /><path
       style="fill:none;stroke:#ff0000;stroke-width:0.264999"
       d="m 164.11513,55.182353 c 4.97996,3.651949 6.2703,5.369174 7.25651,7.612177 0.9751,2.217734 1.57641,3.020385 1.44656,6.355338 -0.0949,3.319952 -0.332,5.762491 -1.04342,6.948186 -0.71143,1.185699 -0.73515,0.853702 -2.39513,-1.517692 -1.65999,-2.371394 -4.52658,-4.799151 -4.52658,-4.799151 0,0 -0.30427,-1.269277 -0.30913,-2.779403 -0.005,-1.510127 -0.10181,-3.268768 -0.11913,-4.976957 -0.0173,-1.708193 -0.0684,-3.884804 -0.34682,-4.249222 -0.27841,-0.364419 0.0371,-2.593276 0.0371,-2.593276 z"
       id="rightLateralHead" /><path
       style="fill:none;stroke:#ff0000;stroke-width:0.264999"
       d="m 60.233424,28.409307 c 0,0 -1.572617,0.227761 -3.086563,1.133581 -1.513943,0.905819 -2.104419,1.244407 -3.436503,2.702893 -1.332087,1.458487 -1.772441,1.845315 -2.901601,4.194085 -1.12916,2.348767 -2.223704,4.985898 -2.812677,7.478895 -0.588973,2.492997 -1.641118,9.806847 -1.950349,9.974532 -0.30923,0.167683 -0.536586,1.891843 -1.509147,0.469511 -0.97256,-1.422331 -1.326724,-2.34756 -1.676828,-4.359756 -0.350105,-2.012196 -0.234757,-7.881096 0.268293,-9.792682 0.503049,-1.911585 1.509146,-5.19817 2.817071,-7.17683 1.307928,-1.978658 2.48171,-3.957318 3.85671,-5.064025 1.375,-1.106707 0.826664,-1.039632 2.576441,-1.643292 1.749777,-0.603658 4.566851,-0.201219 5.472337,0.167682 0.905489,0.368903 1.341464,0.570124 1.710367,0.771342 0.368903,0.201221 0.672449,1.144064 0.672449,1.144064 z"
       id="backleftSideDelt" /><path
       style="fill:none;stroke:#ff0000;stroke-width:0.264999"
       d="m 149.43559,27.751089 c 0,0 0.54819,0.160688 2.06215,1.066508 1.51395,0.905819 2.10443,1.244407 3.43652,2.702893 1.33209,1.458487 1.77245,1.845315 2.90162,4.194085 1.12916,2.348767 2.22371,4.985898 2.81269,7.478895 0.58897,2.492997 1.64113,9.806847 1.95036,9.974532 0.30923,0.167683 1.0061,2.160136 1.97867,0.737804 0.97256,-1.422331 0.85722,-2.615853 1.20732,-4.628049 0.35011,-2.012196 0.23476,-7.881096 -0.26829,-9.792682 -0.50305,-1.911585 -1.71038,-5.131097 -3.01831,-7.109757 -1.30793,-1.978658 -2.31404,-3.320123 -3.68905,-4.42683 -1.37501,-1.106707 -1.09496,-1.073168 -2.84475,-1.676828 -1.74978,-0.603658 -3.96321,-0.301829 -4.8687,0.06707 -0.9055,0.368903 -1.37502,0.469514 -1.74392,0.670732 -0.36891,0.201221 0.0837,0.741625 0.0837,0.741625 z"
       id="backrightSideDelt" /></g></svg>
