<?xml version="1.0" encoding="UTF-8" standalone="no"?>
<!-- Created with Inkscape (http://www.inkscape.org/) -->

<svg
   version="1.1"
   id="svg1"
   width="1024"
   height="1792"
   viewBox="0 0 1024 1792"
   xml:space="preserve"
   xmlns="http://www.w3.org/2000/svg"
   >
   <defs
     id="defs1"><linearGradient
       id="swatch24"><stop
         style="stop-color:#000000;stop-opacity:1;"
         offset="0"
         id="stop24" /></linearGradient><linearGradient
       id="swatch18"><stop
         style="stop-color:#000000;stop-opacity:1;"
         offset="0"
         id="stop18" /></linearGradient></defs><g
     id="g1"
     transform="matrix(0.97890495,0,0,0.97131445,83.859563,-128.5343)"><path
       style="display:inline;fill:none;fill-opacity:1;stroke:#ff0000;stroke-width:1.20824;stroke-dasharray:none;stroke-dashoffset:0;stroke-opacity:1"
       d="m 278.09049,656.65493 c 27.32044,-45.88845 39.06883,-56.12832 49.18396,-61.57178 38.85884,-20.91199 98.73936,5.03563 95.57822,14.90855 -1.12317,3.5079 -10.78242,5.26184 -22.68798,7.67352 -11.90558,2.41166 -73.87626,-2.04443 -122.0742,38.98971 z"
       id="leftUpperChest" /><path
       style="display:inline;fill:none;fill-opacity:1;stroke:#ff0000;stroke-width:1.20824;stroke-dasharray:none;stroke-dashoffset:0;stroke-opacity:1"
       d="m 584.79322,656.65493 c -27.32044,-45.88845 -39.39082,-55.59369 -49.18395,-61.57178 -7.88972,-4.81619 -16.67466,-7.40067 -25.61375,-8.37361 -33.84622,-3.68377 -69.90227,15.73619 -67.94079,24.5989 0.79504,3.59236 10.7824,5.26184 22.68797,7.67351 5.22466,1.05835 19.70123,0.54049 38.37662,3.09396 23.88075,3.26517 54.62721,11.55234 81.6739,34.57902 z"
       id="rightUpperChest" /><path
       style="display:inline;fill:none;fill-opacity:1;stroke:#ff0000;stroke-width:1.20823;stroke-dasharray:none;stroke-dashoffset:0;stroke-opacity:1"
       d="m 429.52202,655.08468 c -38.75719,17.36962 -78.94823,26.24745 -78.94823,26.24745 0,0 -18.73568,6.17587 -31.78657,5.78988 -13.05088,-0.38601 -32.91402,-5.66619 -35.49444,-6.85136 -2.5212,-1.15798 -6.82205,-3.18444 -8.60173,-10.51828 -1.77965,-7.33385 3.39943,-13.09744 3.39943,-13.09744 0,0 4.29658,-3.58056 6.50845,-5.21081 2.21186,-1.63023 7.43579,-5.4608 12.0563,-8.12861 4.62047,-2.66782 11.70958,-6.75661 18.84248,-9.58681 7.13289,-2.8302 22.05083,-7.76893 27.73408,-9.03334 5.68329,-1.26438 22.57402,-4.36055 31.86026,-5.07677 9.28625,-0.71621 18.83944,-0.68869 25.07263,-1.95338 6.2332,-1.2647 17.2993,-4.02983 17.2993,-4.02983 0,0 0,0 2.31987,-0.93149 0.0764,-0.0308 3.06882,-2.71219 3.06882,-2.71219 v 0 c 0.93472,0.85646 2.90623,5.75575 2.90623,5.75575 0,0 2.51681,8.32458 3.0062,16.17155 0.46001,7.37585 1.58372,18.90113 0.75692,23.16568 z"
       id="leftMiddleChest" /><path
       style="display:inline;fill:none;fill-opacity:1;stroke:#ff0000;stroke-width:1.20823;stroke-dasharray:none;stroke-dashoffset:0;stroke-opacity:1"
       d="m 437.72042,654.17511 c 38.75719,17.36962 75.62388,26.92979 75.62388,26.92979 0,0 23.67978,7.01516 36.73068,6.62917 13.05087,-0.38599 28.95921,-4.96151 31.53963,-6.14668 2.52119,-1.15798 6.82206,-3.18444 8.60173,-10.51827 1.77965,-7.33385 -3.39941,-13.09745 -3.39941,-13.09745 0,0 -4.2966,-3.58056 -6.50847,-5.21082 -2.21185,-1.63022 -7.4358,-5.46079 -12.05629,-8.1286 -4.62048,-2.6678 -11.70959,-6.75661 -18.84248,-9.5868 -7.13291,-2.83019 -22.05084,-7.76894 -27.7341,-9.03334 -5.68328,-1.26439 -22.57402,-4.36057 -31.86025,-5.07678 -9.28623,-0.71622 -20.52812,-1.02879 -26.76132,-2.29348 -6.23319,-1.26469 -12.59444,-2.71782 -12.59444,-2.71782 l -5.9465,-2.10179 c -0.83685,-0.29579 -1.31915,-0.82911 -1.73093,-1.23831 l -0.72742,-1.27549 c -0.93472,0.85646 -3.07586,10.06974 -3.07586,10.06974 0,0 -1.32832,4.43942 -1.81771,12.28637 -0.46001,7.37584 -0.26752,16.246 0.55928,20.51056 z"
       id="rightMiddleChest" /><path
       style="display:inline;fill:none;fill-opacity:1;stroke:#ff0000;stroke-width:1.20823;stroke-dasharray:none;stroke-dashoffset:0;stroke-opacity:1"
       d="m 429.52201,655.08468 c 0,0 0.91417,2.70193 0.91417,10.22878 0,7.52685 1.26097,20.26457 -3.28706,26.63342 -4.54804,6.36888 -21.94922,13.70271 -28.07917,15.63269 -6.12996,1.92996 -20.56503,5.59687 -48.44648,5.21089 -27.88145,-0.38598 -64.62149,-31.60057 -64.62149,-31.60057 0,0 6.68991,1.9604 12.34168,3.07161 5.6518,1.1112 12.00408,2.33068 16.22381,2.5956 4.21974,0.26489 12.64518,0.0165 17.38711,-0.90901 4.74193,-0.92551 12.79123,-3.2227 18.6192,-4.61596 5.82797,-1.39327 7.69573,-1.64023 17.57393,-4.49901 9.8782,-2.85876 21.33603,-6.39587 26.04223,-8.01562 4.70621,-1.61977 8.80987,-2.98599 14.46081,-5.16365 5.65097,-2.17763 20.87126,-8.56917 20.87126,-8.56917 z"
       id="leftLowerChest" /><path
       style="fill:none;fill-opacity:1;stroke:#ff0000;stroke-width:1.20823;stroke-dasharray:none;stroke-dashoffset:0;stroke-opacity:1"
       d="m 437.72042,654.17511 c 0,0 -1.42057,5.06746 -1.42057,12.59431 0,7.52684 -3.35453,19.68558 1.19348,26.05443 4.54804,6.36888 21.94922,13.70272 28.07918,15.6327 6.12997,1.92995 20.56504,5.59686 48.44648,5.21088 27.88143,-0.38598 64.62149,-31.60058 64.62149,-31.60058 0,0 -6.68992,1.96041 -12.3417,3.07163 -5.65179,1.1112 -12.00407,2.33068 -16.2238,2.59559 -4.21975,0.26488 -12.28684,-0.93919 -17.02876,-1.86462 -4.74192,-0.92551 -13.87394,-3.37128 -19.70192,-4.76455 -5.82797,-1.39327 -6.01636,-1.75301 -15.89455,-4.61178 -9.8782,-2.85876 -18.08236,-5.95777 -22.78857,-7.57753 -4.7062,-1.61976 -10.41834,-3.82298 -16.06927,-6.00064 -5.65097,-2.17764 -20.87149,-8.73984 -20.87149,-8.73984 z"
       id="rightLowerChest" /><path
       style="fill:none;stroke:#ff0000;stroke-width:1.02714"
       d="m 323.27309,583.47864 c 0,0 -73.09809,112.84065 -89.66237,113.37062 -19.20704,0.61452 -3.914,-77.43718 13.55038,-98.7527 24.33883,-29.7059 70.03906,-23.37485 76.11199,-14.61792 z"
       id="leftFrontDelt" /><path
       style="fill:none;stroke:#ff0000;stroke-width:1.02714"
       d="m 536.90712,584.47897 c 5.70488,11.80572 81.45741,119.40004 86.68466,114.87111 20.20241,-17.50356 3.41771,-82.27211 -14.04667,-103.58763 -24.33884,-29.70589 -66.56506,-20.04041 -72.63799,-11.28348 z"
       id="rightFrontDelt" /><path
       style="fill:none;stroke:#ff0000;stroke-width:1.02714"
       d="m 277.57139,575.67722 c -11.50709,7.49512 -33.95767,19.9379 -40.83752,42.12968 -6.87984,22.19179 -18.78732,52.6426 -7.76368,77.12884 11.02366,24.48624 -11.66965,31.79542 -17.51844,24.01469 -5.84878,-7.78074 -21.75749,-38.76216 -20.82168,-60.59542 0.93581,-21.83326 8.1883,-51.63578 25.50072,-64.83944 17.31241,-13.20368 35.79458,-19.8055 45.3866,-19.56973 9.59201,0.23578 16.054,1.73138 16.054,1.73138 z"
       id="frontleftSideDelt" /><path
       style="fill:none;stroke:#ff0000;stroke-width:1.02714"
       d="m 581.77992,575.67722 c 11.50709,7.49512 33.95767,19.9379 40.83752,42.12968 6.87984,22.19179 18.78732,52.6426 7.76368,77.12884 -11.02366,24.48624 11.66965,31.79542 17.51844,24.01469 5.84878,-7.78074 21.75749,-38.76216 20.82168,-60.59542 -0.93581,-21.83326 -8.1883,-51.63578 -25.50072,-64.83944 -17.31241,-13.20368 -35.79458,-19.8055 -45.3866,-19.56973 -9.59201,0.23578 -16.054,1.73138 -16.054,1.73138 z"
       id="frontrightSideDelt" /><path
       style="fill:none;stroke:#ff0000;stroke-width:1.02714"
       d="m 268.68162,681.84433 c -1.32343,1.97895 18.33607,18.00592 5.03231,73.02401 -13.30375,55.0181 -23.4038,65.68827 -36.46377,83.69419 -13.05996,18.00593 -25.14517,19.3397 -34.40917,19.00626 -9.26401,-0.33345 -14.88859,-23.67446 -15.21945,-42.01382 -0.33086,-18.33937 11.58001,-45.01481 17.53545,-59.01942 5.95543,-14.00459 19.84144,-32.93405 24.5771,-41.05844 4.73566,-8.12439 25.5478,-36.63377 38.94753,-33.63278 z"
       id="leftBicep" /><path
       style="fill:none;stroke:#ff0000;stroke-width:1.02714"
       d="m 589.1846,680.19387 c 1.32343,1.97895 -15.06075,18.2417 -1.75699,73.25979 13.30375,55.0181 21.06429,62.15157 34.12426,80.15749 13.05996,18.00593 27.25073,20.5186 36.51473,20.18516 9.26401,-0.33345 13.01698,-24.3818 13.34784,-42.72116 0.33086,-18.33937 -10.1763,-41.94967 -16.13174,-55.95428 -5.95543,-14.00459 -22.41491,-33.16983 -27.15057,-41.29422 -4.73566,-8.12439 -25.5478,-36.63377 -38.94753,-33.63278 z"
       id="rightBicep" /><path
       style="fill:none;stroke:#ff0000;stroke-width:1.02714"
       d="m 198.87069,697.36629 12.58105,21.58414 c 0,0 9.77634,9.49292 5.93157,15.66325 -3.84479,6.17033 -28.52105,50.84806 -33.31849,51.93175 -4.79743,1.08369 -16.71294,-35.64684 -13.90551,-45.78537 2.80742,-10.13853 11.46362,-37.95028 18.24821,-40.67202 6.7846,-2.72175 10.46317,-2.72175 10.46317,-2.72175 z"
       id="leftBrachialis" /><path
       style="fill:none;stroke:#ff0000;stroke-width:1.02714"
       d="m 660.48061,697.36629 -12.58105,21.58414 c 0,0 -9.22745,8.91453 -5.38268,15.08486 3.84479,6.17033 29.84377,49.30443 34.64121,50.38812 4.79743,1.08369 14.84133,-33.52482 12.0339,-43.66335 -2.80742,-10.13853 -8.1883,-34.64936 -14.97289,-37.3711 -6.7846,-2.72175 -13.73849,-6.02267 -13.73849,-6.02267 z"
       id="rightBrachialis" /><path
       style="fill:none;stroke:#ff0000;stroke-width:1.02714"
       d="m 161.38613,811.37611 c 0,0 -58.01999,82.52293 -29.01,148.06972 29.01,65.54677 85.33984,5.18715 102.09362,-39.13945 16.75377,-44.3266 -10.26764,-62.18494 -11.55437,-62.18494 -1.28674,0 -22.57632,-4.42286 -25.38374,14.32163 -2.80742,18.7445 -6.31669,-3.06513 -7.72041,-6.48394 -1.40371,-3.4188 -24.33096,-50.33899 -28.4251,-54.58302 z"
       id="leftForearmMuscles" /><path
       style="fill:none;stroke:#ff0000;stroke-width:1.03288"
       d="m 693.45096,814.71633 c 0,0 62.97961,78.11692 33.97124,144.40166 -29.00838,66.28471 -83.86434,11.91442 -100.61718,-32.91124 -16.75283,-44.82564 6.48033,-71.87019 7.767,-71.87019 1.28666,0 24.89105,-2.15637 27.69832,16.79916 2.80725,18.95553 6.31633,-3.09964 7.71997,-6.55694 1.40363,-3.45729 19.36674,-45.57064 23.46065,-49.86245 z"
       id="rightForearmMuscles" /><path
       style="fill:none;stroke:#ff0000;stroke-width:1.02714"
       d="m 430.42661,699.99904 c -72.02063,26.52665 -69.10491,27.86043 -69.10491,27.86043 l 11.91087,48.68267 c 0,0 -8.93315,44.34792 -1.98515,54.01776 6.94801,9.66985 15.35649,-8.33607 59.95373,-8.66952 44.59723,-0.33343 53.19952,14.33806 58.49324,5.00165 5.29372,-9.3364 0.66172,-51.68367 0.66172,-51.68367 l 10.25657,-50.34989 z"
       id="upperRectusAbdominis" /><path
       style="fill:none;stroke:#ff0000;stroke-width:1.02714"
       d="m 431.20113,821.89037 c -12.63081,0.61262 -23.2887,0.92802 -33.69603,4.50858 -10.40734,3.58056 -14.48214,5.93709 -19.12919,6.72808 -4.64705,0.791 -12.09135,6.60256 -10.43706,47.11588 1.65429,40.51332 29.44632,102.70044 29.44632,102.70044 l 70.16327,-0.26438 c 0,0 19.33367,-46.08419 24.46196,-98.93491 5.12829,-52.85071 -4.00931,-53.58976 -6.60988,-53.76287 -2.60057,-0.17309 -3.21122,-1.27503 -16.26976,-3.88835 -13.05855,-2.61331 -14.25791,-3.63865 -26.09377,-3.92056 z"
       id="lowerRectusAbdominis" /><path
       style="fill:none;stroke:#ff0000;stroke-width:1.02714"
       d="m 373.89429,517.45694 c -62.86292,14.67149 -83.36692,52.71642 -83.36692,52.71642 l 56.14837,5.50386 c 0,0 35.01911,-48.45507 27.21855,-58.22028 z"
       id="frontleftUpperTraps" /><path
       style="fill:none;stroke:#ff0000;stroke-width:1.02714"
       d="m 486.00446,516.96301 c 62.86292,14.67149 83.36692,52.71642 83.36692,52.71642 l -56.14837,5.50386 c 0,0 -35.01911,-48.45507 -27.21855,-58.22028 z"
       id="frontrightUpperTraps" /><path
       style="fill:none;stroke:#ff0000;stroke-width:1.02714"
       d="m 379.42897,497.08163 32.51926,19.80151 h 36.02854 l 31.07541,-20.5256 c 4.45065,28.10251 0.35792,64.13712 15.94884,84.89747 -46.50268,15.9545 -87.6619,15.03369 -127.50358,-2.12202 6.8293,3.45286 9.99157,-41.95513 11.93153,-82.05136 z"
       id="frontNeckMuscles" /><path
       style="fill:none;stroke:#ff0000;stroke-width:1.02714"
       d="m 361.32168,727.85947 c 0,0 -17.12825,2.64417 -27.27932,15.61206 -10.15107,12.96788 -12.09269,58.07884 -12.09269,93.75723 0,35.67841 -11.58001,27.34233 -1.32343,53.35088 10.25658,26.00856 23.284,42.34727 37.77974,56.68531 14.49573,14.33806 30.63903,15.28047 30.63903,15.28047 0,0 -12.18273,-23.02531 -16.64445,-52.66391 -4.46173,-29.6386 -2.99481,-35.85353 -4.10317,-54.85997 -1.10835,-19.00644 4.93516,-78.47941 4.93516,-78.47941 z"
       id="leftOblique" /><path
       style="fill:none;stroke:#ff0000;stroke-width:1.02714"
       d="m 500.61268,724.85847 c 0,0 18.78255,4.3114 28.93362,17.27929 10.15107,12.96788 7.79154,69.08246 7.79154,104.76085 0,35.67841 7.94058,26.80818 -2.316,52.81673 -10.25658,26.00856 -22.96049,31.8778 -37.45623,46.21584 -14.49573,14.33806 -23.02196,15.28047 -23.02196,15.28047 0,0 12.18273,-23.02531 16.64445,-52.66391 4.46173,-29.6386 4.86957,-35.83641 4.10317,-54.85997 -0.85851,-21.30992 -5.00382,-78.55982 -4.93516,-78.47941 z"
       id="rightOblique" /><path
       style="fill:none;stroke:#ff0000;stroke-width:1.02714"
       d="m 330.76704,1067.9045 c -14.89233,117.89 -13.10128,124.4917 -6.55064,162.2165 6.55064,37.7248 14.39469,51.8716 28.68366,62.2459 14.28898,10.3743 24.63366,-33.6662 26.6188,-44.6698 1.98515,-11.0036 -2.97772,-43.3476 -5.62457,-51.6837 -2.64687,-8.336 -19.85145,-78.3591 -23.16002,-86.0283 -3.30858,-7.6691 -19.96723,-42.0806 -19.96723,-42.0806 z"
       id="leftVastusMedialis" /><path
       style="fill:none;stroke:#ff0000;stroke-width:1.05208"
       d="m 530.01156,1056.6434 c 14.88311,123.7603 13.09317,130.6908 6.54659,170.2941 -6.54659,39.6033 -14.38578,54.4546 -28.6659,65.3454 -14.28013,10.8909 -24.6184,-35.3426 -26.60231,-46.8941 -1.98392,-11.5515 2.97588,-45.5061 5.62109,-54.2573 2.64523,-8.7511 19.83915,-82.261 23.14567,-90.3121 3.30653,-8.051 19.95486,-44.176 19.95486,-44.176 z"
       id="rightVastusMedialis" /><path
       style="fill:none;stroke:#ff0000;stroke-width:1.02714"
       d="m 283.5702,1054.7916 c -17.22893,56.0623 11.1756,109.1342 26.13775,148.2242 12.0894,31.5847 -10.2821,48.1606 -26.13775,29.3429 -17.47734,-20.7424 -32.62078,-102.0683 -22.16744,-138.7123 11.20294,-39.2716 22.16744,-38.8548 22.16744,-38.8548 z"
       id="leftVastusLateralis" /><path
       style="fill:none;stroke:#ff0000;stroke-width:1.02714"
       d="m 578.04123,1052.4755 c 12.98697,56.0623 -11.1891,109.1342 -26.13775,148.2242 -12.07991,31.5884 10.2821,48.1606 26.13775,29.3429 17.47734,-20.7424 32.62078,-102.0683 22.16744,-138.7123 -11.20294,-39.2716 -22.16744,-38.8548 -22.16744,-38.8548 z"
       id="rightVastusLateralis" /><path
       style="fill:none;stroke:#ff0000;stroke-width:1.02714"
       d="m 304.33052,995.52014 c -10.52782,14.14676 -13.04617,21.92756 -15.9087,34.42386 -2.86255,12.4963 -4.85163,24.8476 -4.85163,24.8476 0,0 -5.01624,34.7324 -1.98513,57.6944 3.03111,22.962 24.31802,86.6118 29.3636,88.6958 5.04558,2.084 16.04658,-132.2101 14.47501,-137.7953 -1.57157,-5.5852 -7.85786,-37.8458 -11.24915,-46.682 -3.39129,-8.8363 -5.21101,-20.17334 -7.52701,-21.00695 -2.316,-0.83361 -2.31699,-0.17741 -2.31699,-0.17741 z"
       id="leftRectusFemoris" /><path
       style="fill:none;stroke:#ff0000;stroke-width:1.02714"
       d="m 555.56176,991.98344 c 10.52782,14.14676 13.04617,21.92756 15.9087,34.42386 2.86255,12.4963 4.85163,24.8476 4.85163,24.8476 0,0 5.01624,34.7324 1.98513,57.6944 -3.03111,22.962 -24.31802,86.6118 -29.3636,88.6958 -5.04558,2.084 -16.04658,-132.2101 -14.47501,-137.7953 1.57157,-5.5852 7.85786,-37.8458 11.24915,-46.682 3.39129,-8.8363 5.21101,-20.17334 7.52701,-21.00695 2.316,-0.83361 2.31699,-0.17741 2.31699,-0.17741 z"
       id="rightRectusFemoris" /><path
       style="fill:none;stroke:#ff0000;stroke-width:1.02714"
       d="m 387.38332,991.22052 c 0,0 -10.05992,6.84418 -18.01427,34.95098 -7.95436,28.1068 -11.93153,71.9128 -8.65621,87.4743 3.27532,15.5615 14.76707,49.0422 19.78297,64.1321 5.0159,15.09 6.65355,19.5698 10.39678,11.789 3.74322,-7.7807 22.17017,-44.2118 24.56492,-62.4816 3.12988,-23.8783 6.30981,-28.8108 2.10555,-52.1074 -4.63533,-25.6853 -15.67475,-67.5441 -30.17974,-83.75738 z"
       id="leftAdductors" /><path
       style="fill:none;stroke:#ff0000;stroke-width:1.02714"
       d="m 472.86557,995.4348 c 0,0 10.05992,6.8442 18.01427,34.951 7.95436,28.1068 11.93153,71.9128 8.65621,87.4743 -3.27532,15.5615 -11.02385,47.3354 -16.03975,62.4253 -18.55457,44.5946 -34.64814,-37.7008 -36.13145,-50.4005 -1.79862,-17.2819 -5.24647,-23.5086 -4.67902,-50.6927 0.54484,-26.1009 15.67475,-67.5441 30.17974,-83.7574 z"
       id="rightAdductors" /><path
       style="fill:none;stroke:#ff0000;stroke-width:1.02714"
       d="m 305.73765,977.94171 c 0,0 8.41883,39.03439 23.39173,81.47479 14.9729,42.4403 18.93768,38.9386 28.36043,73.9344 9.42275,34.9959 19.87802,77.5704 20.91403,87.1903 1.036,9.6197 6.52298,11.8197 6.40601,2.1527 -0.11698,-9.6669 0.7308,-29.8421 -2.87235,-40.6123 -3.60315,-10.7704 -12.04497,-34.75 -16.22982,-49.8202 -4.18485,-15.0702 -23.47702,-188.14126 -34.23879,-200.40181 -10.76177,-12.26055 -13.80313,-37.72478 -20.11982,-0.23578 -6.31669,37.48899 -6.30985,40.80144 -5.61142,46.3179 z"
       id="leftSartorius" /><path
       style="fill:none;stroke:#ff0000;stroke-width:1.02714"
       d="m 554.90004,975.71779 c 0,0 -8.41883,39.03441 -23.39173,81.47481 -14.9729,42.4403 -18.93768,38.9386 -28.36043,73.9344 -9.42275,34.9959 -19.87802,77.5704 -20.91403,87.1903 -1.036,9.6197 -6.52298,11.8197 -6.40601,2.1527 0.11698,-9.6669 5.88213,-29.0816 9.48528,-39.8518 3.60315,-10.7704 7.24886,-35.1777 11.43371,-50.2479 4.18485,-15.0702 21.6602,-188.47411 32.42197,-200.73466 10.76177,-12.26055 13.80313,-37.72478 20.11982,-0.23578 6.31669,37.48899 6.30985,40.80144 5.61142,46.31793 z"
       id="rightSartorius" /><path
       style="fill:none;stroke:#ff0000;stroke-width:1.02714"
       d="m 303.09226,1366.8733 c -17.53299,99.0276 8.49037,132.9798 15.74377,152.7853 7.25339,19.8056 10.76125,-54.4651 9.35754,-71.4412 -1.4037,-16.9762 -20.58773,-74.978 -22.45934,-78.5147 -1.87161,-3.5367 -2.64197,-2.8294 -2.64197,-2.8294 z"
       id="leftTibialisAnterior" /><path
       style="fill:none;stroke:#ff0000;stroke-width:1.02714"
       d="m 561.17115,1366.8733 c 17.53299,99.0276 -8.49037,132.9798 -15.74377,152.7853 -7.25339,19.8056 -10.76125,-54.4651 -9.35754,-71.4412 1.4037,-16.9762 20.58773,-74.978 22.45934,-78.5147 1.87161,-3.5367 2.64197,-2.8294 2.64197,-2.8294 z"
       id="rightTibialisAnterior" /></g></svg>
